<svg xmlns="http://www.w3.org/2000/svg" style="display: none;">
    <symbol id="svg-symbol-humidity" viewBox="0 0 792 792">
      <path d="M665.335 486.777c-7.815-46.16-25.534-88.323-43.162-126.578C569.197 243.433 505.408 137.39 442.62 39.254l-7.816-13.72C423.99 8.814 411.27 0 396.55 0c-21.627 0-35.348 19.627-39.256 25.534v1l-13.72 21.626c-24.535 39.255-50.07 80.508-74.603 121.67-38.254 64.79-86.323 151.114-121.67 243.344-11.813 30.44-22.535 60.88-23.535 94.23-3.907 86.323 27.442 159.017 92.23 215.9C266.063 767.466 329.852 792 395.55 792c96.137 0 183.55-49.068 233.528-132.485 33.35-54.974 46.07-113.856 36.257-172.738zm-67.697 154.11c-43.162 72.604-118.764 114.766-202.18 114.766-56.883 0-112.857-20.627-156.02-58.882-55.973-49.067-83.415-112.856-80.507-187.458 1-27.442 9.815-53.975 21.627-82.417 34.348-90.322 81.417-174.647 118.764-238.436 23.536-40.255 49.07-81.418 74.603-120.673l12.72-20.627c0-1 1-1 1-2 2-2.907 5.907-7.814 7.816-8.813 0 0 2.907 1 7.814 8.814l7.815 12.722c60.88 96.138 124.67 201.18 176.645 316.037 16.72 37.255 33.348 76.51 40.254 117.763 9.903 51.068-.91 101.045-30.352 149.205zm-184.55 21.536c0 9.814-7.816 17.628-17.63 17.628-89.322 0-160.925-72.602-160.925-160.925 0-9.814 7.815-17.628 17.628-17.628 9.815 0 17.63 7.815 17.63 17.628.998 68.696 56.973 124.67 125.668 124.67 9.814 0 17.63 8.814 17.63 18.628z" fill="#fff"/>
    </symbol>
    <symbol id="svg-symbol-manometer" viewBox="0 0 517 517">
      <g fill="#fff"><path d="M284.9 361.4l-26.8-141.5-26.8 141.5c-13.4 7.7-21 23-21 40.2 0 26.8 21 47.8 47.8 47.8 26.8 0 47.8-21 47.8-47.8.1-17.3-7.6-30.7-21-40.2zm-26.7 68.8c-15.3 0-28.7-13.4-28.7-28.7 0-15.3 13.4-28.7 28.7-28.7 15.3 0 28.7 13.4 28.7 28.7 0 15.3-13.4 28.7-28.7 28.7zM141.5 149.1c-3.8-3.8-9.6-5.7-13.4-1.9-3.8 3.8-5.7 9.6-1.9 13.4l34.4 45.9c3.8 3.8 9.6 5.7 13.4 1.9 3.8-3.8 5.7-9.6 1.9-13.4l-34.4-45.9zM109 363.3l-55.5 17.2c-5.7 1.9-7.7 7.7-5.7 11.5 1.9 5.7 7.6 7.6 11.5 5.7l55.5-17.2c5.7-1.9 7.6-7.6 5.7-11.5 0-3.8-5.8-7.6-11.5-5.7zM116.6 269.6l-55.5-17.2c-5.7-1.9-9.6 1.9-11.5 5.7-1.9 5.7 1.9 9.6 5.7 11.5l55.5 17.2c5.7 1.9 9.6-1.9 11.5-5.7.1-5.8-1.8-11.5-5.7-11.5zM267.7 172v-57.4c0-5.7-3.8-9.6-9.6-9.6s-9.6 3.8-9.6 9.6V172c0 5.7 3.8 9.6 9.6 9.6s9.6-3.8 9.6-9.6zM374.8 149.1L340.4 195c-3.8 3.8-1.9 9.6 1.9 13.4 3.8 3.8 9.6 1.9 13.398-1.9l34.4-45.9c3.8-3.8 1.9-9.6-1.9-13.4-5.698-3.9-11.5-1.9-13.397 1.9zM457.1 252.4l-55.5 17.2c-5.7 1.9-7.6 7.6-5.7 11.5 0 3.8 5.7 7.7 11.5 5.7l55.5-17.2c5.7-1.9 7.7-7.7 5.7-11.5-2-5.7-7.7-7.6-11.5-5.7zM258.2 66.9C114.8 66.9 0 181.7 0 325.1c0 28.7 5.7 57.4 13.4 84.1l19.1-5.698c-9.6-24.9-13.4-51.6-13.4-78.4 0-132 107.1-239.1 239.1-239.1s239 107.1 239 239c0 26.8-3.8 53.5-13.398 78.4l19.1 5.7c9.6-26.8 13.4-53.5 13.4-84.1C516.4 181.6 401.6 66.9 258.2 66.9zM460.9 380.5l-55.5-17.2c-5.7-1.9-9.6 1.9-11.5 5.7-1.9 5.7 1.9 9.6 5.7 11.5l55.5 17.2c5.7 1.9 9.6-1.9 11.5-5.7 1.9-3.9 0-9.6-5.7-11.5z"/></g>
    </symbol>
    <symbol id="svg-symbol-temp" viewBox="0 0 470 470">
      <path d="M290.046 311.414v-256.2C290.046 24.773 265.274 0 234.826 0c-30.45 0-55.22 24.772-55.22 55.215v256.2c-21.122 16.79-33.538 42.27-33.538 69.483 0 48.937 39.814 88.757 88.757 88.757 48.943 0 88.762-39.82 88.762-88.757 0-27.213-12.417-52.692-33.54-69.484zm-55.22 131.983c-34.46 0-62.5-28.034-62.5-62.498 0-20.865 10.366-40.282 27.726-51.935l5.812-3.907V55.215c0-15.97 12.99-28.956 28.962-28.956 15.97 0 28.96 12.985 28.96 28.955v269.842l5.812 3.907c17.367 11.663 27.732 31.07 27.732 51.934 0 34.465-28.04 62.5-62.505 62.5zM261.084 341.66l-12.584-8.445V160.302c0-7.543-6.136-13.678-13.673-13.678-7.543 0-13.68 6.135-13.68 13.678v172.913l-12.583 8.445c-13.12 8.808-20.957 23.474-20.957 39.235 0 26.035 21.184 47.22 47.22 47.22 26.035 0 47.22-21.185 47.22-47.22 0-15.76-7.838-30.426-20.963-39.235z" fill="#fff"/>
    </symbol></svg>