<svg width="470" height="470" viewBox="0 0 470 470">
	<path d="M290.046,311.414V55.215C290.046,24.772,265.274,0,234.825,0c-30.449,0-55.22,24.772-55.22,55.215v256.199
		c-21.121,16.792-33.537,42.271-33.537,69.484c0,48.937,39.814,88.757,88.757,88.757c48.943,0,88.762-39.82,88.762-88.757
		C323.588,353.685,311.17,328.206,290.046,311.414z M234.825,443.397c-34.46,0-62.498-28.034-62.498-62.498
		c0-20.864,10.365-40.281,27.725-51.934l5.812-3.907V55.215c0-15.971,12.991-28.956,28.962-28.956
		c15.971,0,28.961,12.986,28.961,28.956v269.842l5.811,3.907c17.367,11.663,27.732,31.07,27.732,51.934
		C297.329,415.363,269.29,443.397,234.825,443.397z" fill="#fff"/>
	<path d="M261.084,341.66l-12.584-8.445v-98.388v-58.963v-15.562c0-7.543-6.136-13.678-13.673-13.678
		c-7.543,0-13.679,6.135-13.679,13.678v15.562v58.963v98.388l-12.584,8.445c-13.119,8.808-20.957,23.474-20.957,39.235
		c0,26.035,21.184,47.22,47.22,47.22c26.035,0,47.22-21.185,47.22-47.22C282.047,365.135,274.209,350.469,261.084,341.66z" fill="#fff"/>
</svg>
